# xmcd
#
# Track frame offsets: 
#        150
#        11716
#        23841
#        37396
#        52800
#        69600
#        112274
#        129068
#        141900
#        155335
#        172314
#
# Disc length: 2686 seconds
#
# Revision: 0
# Processed by: cddbd v1.5.2PL0 Copyright (c) Steve Scherf et al.
# Submitted via: ExactAudioCopy v1.0b1
#
DISCID=9c0a7c0b
DTITLE=Daantje and the golden handwerk - ach
DYEAR=2011
DGENRE=Folk
TTITLE0=Nicht Viel
TTITLE1=Container
TTITLE2=Alles was wir haben
TTITLE3=Herr Wisemann
TTITLE4=Meine BumBumBum Revolte
TTITLE5=Rampenlied
TTITLE6=Weiße Wände
TTITLE7=Zum Tee zu Neerström
TTITLE8=Wer du bist
TTITLE9=Immer Rot
TTITLE10=König
EXTD=
EXTT0=
EXTT1=
EXTT2=
EXTT3=
EXTT4=
EXTT5=
EXTT6=
EXTT7=
EXTT8=
EXTT9=
EXTT10=
PLAYORDER=
